<svg width="20" height="18" viewBox="0 0 20 18" fill="none" xmlns="http://www.w3.org/2000/svg">
<path d="M4.78744 15.4862L4.52511 13.4166C4.38302 13.3627 4.24923 13.298 4.12375 13.2225C3.99827 13.1471 3.8752 13.0662 3.75453 12.98L1.80349 13.7885L0 10.7163L1.68872 9.45508C1.67779 9.37962 1.67232 9.30697 1.67232 9.23712V8.80055C1.67232 8.73026 1.67779 8.65739 1.68872 8.58194L0 7.32073L1.80349 4.24856L3.75453 5.05703C3.87476 4.97079 4.00046 4.88994 4.13162 4.81449C4.26279 4.73903 4.39395 4.67435 4.52511 4.62045L4.78744 2.55078H8.39441L8.65673 4.62045C8.79883 4.67435 8.93283 4.73903 9.05875 4.81449C9.18466 4.88994 9.30752 4.97079 9.42731 5.05703L11.3784 4.24856L13.1818 7.32073L11.4931 8.58194C11.5041 8.65739 11.5095 8.73026 11.5095 8.80055V9.23647C11.5095 9.30675 11.4986 9.37962 11.4767 9.45508L13.1818 9.91975C11.8632 10.7934 10.9374 12.147 10.6012 13.6926L10.5455 13.9488L9.42731 12.98C9.30708 13.0662 9.18138 13.1471 9.05022 13.2225C8.91906 13.298 8.7879 13.3627 8.65673 13.4166L8.39441 15.4862H4.78744ZM6.62371 11.2822C7.25767 11.2822 7.79871 11.0612 8.24685 10.6193C8.69499 10.1773 8.91906 9.64372 8.91906 9.01851C8.91906 8.39329 8.69499 7.85971 8.24685 7.41775C7.79871 6.97578 7.25767 6.7548 6.62371 6.7548C5.97883 6.7548 5.43494 6.97578 4.99205 7.41775C4.54916 7.85971 4.32793 8.39329 4.32837 9.01851C4.3288 9.64372 4.55025 10.1773 4.99271 10.6193C5.43516 11.0612 5.97883 11.2822 6.62371 11.2822Z" fill="#348760"/>
<ellipse cx="15.0951" cy="14.0148" rx="4.07503" ry="3.98644" fill="#348760"/>
<path d="M13.677 6.89746H16.3937L16.6004 10.2933H13.5884L13.677 6.89746Z" fill="#348760"/>
<rect x="13.146" y="5.95215" width="3.77974" height="0.944935" rx="0.472467" fill="#348760"/>
<path d="M18.4617 14.015C18.4617 15.8578 16.9545 17.3518 15.0953 17.3518C13.2362 17.3518 11.729 15.8578 11.729 14.015C11.729 12.3769 11.8442 14.9806 14.1315 13.1534C14.6911 12.7063 15.4874 12.7477 16.1414 13.0401C17.8119 13.787 18.4617 11.4275 18.4617 14.015Z" fill="white"/>
<ellipse cx="14.5628" cy="15.9039" rx="0.472467" ry="0.442938" fill="#348760"/>
<circle cx="15.3014" cy="14.1325" r="0.206705" fill="#27714F" fill-opacity="0.54"/>
<ellipse cx="15.674" cy="2.85248" rx="1.96967" ry="1.6754" transform="rotate(-7.1831 15.674 2.85248)" fill="#27714F"/>
<ellipse cx="13.9155" cy="2.85343" rx="1.20601" ry="1.2625" transform="rotate(-7.77232 13.9155 2.85343)" fill="#27714F"/>
<path d="M18.4184 3.35015C18.4972 3.97517 18.028 4.54903 17.3704 4.63191C16.7128 4.71478 16.1159 4.27528 16.0372 3.65026C15.9584 3.02523 16.4276 2.45137 17.0851 2.3685C17.7427 2.28563 18.3396 2.72513 18.4184 3.35015Z" fill="#27714F"/>
<path d="M14.6436 3.71223L16.2181 4.13962L16.0706 4.52611C16.048 4.58519 16.0365 4.6479 16.0365 4.71114L16.0369 5.09669L15.1263 4.91618L14.245 4.72094L14.4971 4.37823C14.5451 4.31307 14.5757 4.23679 14.5861 4.15656L14.6436 3.71223Z" fill="#27714F"/>
<path d="M14.5042 2.46984L14.2252 2.42498C14.2261 2.39573 14.2226 2.36865 14.2148 2.34373C14.207 2.31881 14.1949 2.29664 14.1785 2.27722C14.1622 2.2578 14.1417 2.24172 14.117 2.22897C14.0928 2.21591 14.0651 2.20687 14.0338 2.20185C13.9784 2.19294 13.9284 2.19883 13.8838 2.21953C13.8397 2.24028 13.8027 2.2746 13.7728 2.32247C13.7434 2.3704 13.7228 2.43083 13.711 2.50374C13.6988 2.57964 13.6994 2.64499 13.7127 2.6998C13.7265 2.7543 13.751 2.79774 13.7862 2.83012C13.8219 2.86219 13.8669 2.8826 13.9212 2.89133C13.9517 2.89623 13.9801 2.89678 14.0063 2.89298C14.0328 2.88923 14.0568 2.88145 14.0781 2.86962C14.0999 2.85747 14.1187 2.8416 14.1345 2.822C14.1506 2.80208 14.1634 2.77875 14.1726 2.75199L14.4514 2.79853C14.4384 2.84835 14.4157 2.89584 14.3832 2.941C14.3512 2.98622 14.3107 3.0257 14.2617 3.05943C14.2129 3.09279 14.156 3.11647 14.0912 3.13047C14.0267 3.14453 13.9552 3.14525 13.8767 3.13263C13.7733 3.116 13.6843 3.07841 13.6097 3.01986C13.5356 2.961 13.482 2.88406 13.4488 2.78903C13.4156 2.69401 13.4091 2.58381 13.4292 2.45843C13.4494 2.33268 13.4906 2.22996 13.5526 2.15024C13.6147 2.07053 13.6903 2.01456 13.7794 1.98234C13.8686 1.95011 13.9639 1.94216 14.0655 1.95849C14.1347 1.96962 14.1971 1.98958 14.2528 2.01837C14.3085 2.0468 14.3558 2.08302 14.3945 2.12703C14.4333 2.17066 14.4623 2.22133 14.4817 2.27901C14.501 2.3367 14.5085 2.40031 14.5042 2.46984ZM15.7157 2.82607C15.6955 2.95182 15.6542 3.05451 15.5917 3.13417C15.5293 3.21382 15.4532 3.2697 15.3633 3.30181C15.2738 3.33397 15.1778 3.34183 15.0755 3.32538C14.9729 3.30887 14.8841 3.27113 14.8092 3.21215C14.7344 3.15317 14.6797 3.07626 14.6454 2.98143C14.6114 2.88629 14.6046 2.77603 14.6247 2.65065C14.6449 2.5249 14.6861 2.42217 14.7481 2.34246C14.8105 2.26281 14.8865 2.2069 14.976 2.17473C15.0655 2.14257 15.1616 2.13474 15.2643 2.15125C15.3666 2.1677 15.4552 2.20523 15.5302 2.26383C15.6055 2.3225 15.6603 2.39944 15.6946 2.49464C15.7289 2.58985 15.7359 2.70032 15.7157 2.82607ZM15.4333 2.78067C15.4453 2.70626 15.4448 2.64168 15.4318 2.58693C15.4193 2.53224 15.3954 2.48852 15.3602 2.45576C15.3254 2.42307 15.2804 2.40229 15.2254 2.39344C15.1707 2.38465 15.1215 2.39029 15.0778 2.41036C15.0341 2.43043 14.9976 2.46444 14.9681 2.51237C14.939 2.56036 14.9185 2.62156 14.9065 2.69596C14.8946 2.77037 14.8949 2.83492 14.9075 2.88961C14.9204 2.94436 14.9445 2.98811 14.9797 3.02087C15.0148 3.05362 15.0598 3.0744 15.1145 3.08319C15.1695 3.09204 15.2187 3.0864 15.262 3.06627C15.3057 3.0462 15.3421 3.01216 15.3712 2.96417C15.4007 2.91624 15.4214 2.85507 15.4333 2.78067Z" fill="white"/>
<path d="M16.0284 3.82321L16.0604 3.62454L16.5359 3.3266C16.5717 3.30335 16.6025 3.28177 16.6282 3.26187C16.654 3.24159 16.6745 3.22047 16.6899 3.19851C16.7053 3.17618 16.7153 3.15088 16.7198 3.12261C16.7249 3.09099 16.7224 3.06291 16.7122 3.03837C16.7021 3.01346 16.6859 2.99293 16.6637 2.97676C16.6415 2.9606 16.6148 2.95 16.5835 2.94498C16.5519 2.93989 16.5231 2.94195 16.4972 2.95114C16.4714 2.95996 16.4498 2.97538 16.4326 2.99741C16.4156 3.0195 16.4044 3.04785 16.3988 3.08244L16.1371 3.04036C16.1496 2.96261 16.1779 2.89827 16.222 2.84734C16.266 2.79641 16.3221 2.76078 16.3903 2.74045C16.4589 2.7198 16.5352 2.71623 16.6193 2.72975C16.706 2.74369 16.779 2.77031 16.8383 2.80962C16.8976 2.84892 16.9406 2.89743 16.9672 2.95514C16.9942 3.01253 17.0022 3.07546 16.9912 3.14391C16.9842 3.18744 16.9685 3.22919 16.9442 3.26916C16.9198 3.30914 16.8808 3.35133 16.8271 3.39574C16.7737 3.44022 16.6998 3.49187 16.6052 3.55071L16.4482 3.65484L16.447 3.6621L16.9102 3.73657L16.8744 3.95923L16.0284 3.82321Z" fill="white"/>
</svg>
